PathFileType	4	(X/Y/Z)	C:\Users\WrightLab\Desktop\Jo\P1_boxCal14.trc
DataRate	CameraRate	NumFrames	NumMarkers	Units	OrigDataRate	OrigDataStartFrame	OrigNumFrames
100.00	100.00	       9	19	mm	100.00	406	       811
Frame#	Time	Headset_Front			Headset_Back			Headset_Left			Headset_Right			Left_Shoulder			Right_Shoulder			Sternum			C7			Left Elbow			Right Elbow			Left Wrist			Right Wrist			Left ASIS			Right ASIS			S2			Left Knee			Right Knee			Left Ankle			Right Ankle			
		X1	Y1	Z1	X2	Y2	Z2	X3	Y3	Z3	X4	Y4	Z4	X5	Y5	Z5	X6	Y6	Z6	X7	Y7	Z7	X8	Y8	Z8	X9	Y9	Z9	X10	Y10	Z10	X11	Y11	Z11	X12	Y12	Z12	X13	Y13	Z13	X14	Y14	Z14	X15	Y15	Z15	X16	Y16	Z16	X17	Y17	Z17	X18	Y18	Z18	X19	Y19	Z19	

406	4.050	-723.14154	446.58224	96.61324	-905.47546	1503.18994	93.74290							-742.73096	848.02966	67.50462				-785.85559	1133.75110	20.82934	-883.97150	859.16760	-72.54411				-684.12720	766.40973	361.32031	-697.26996	85.11025	38.69252	-800.07477	997.57037	371.18063				-693.42108	1333.02881	-57.99854	-987.04694	1270.12842	147.26242	-767.61084	1241.86780	228.05421				-1006.62787	1252.10742	-64.09274	-886.27679	1413.84473	-54.30143	
407	4.060	-717.99866	445.96579	89.70780	-900.48804	1502.94946	88.20908							-738.03552	847.49011	60.91447				-781.62115	1134.37256	13.64217	-879.56903	858.60632	-77.87022				-680.73962	764.38074	358.26767	-694.85944	84.79819	35.40076	-796.19580	996.39063	365.53104				-688.50702	1332.62354	-63.69744	-980.92023	1268.84204	142.70329	-762.94818	1240.57800	223.68643				-1000.83105	1251.57874	-68.91026	-881.22803	1413.80139	-59.33461	
408	4.070	-713.59430	445.86188	84.19945	-895.10632	1502.24353	83.50140							-734.24286	847.10278	56.26722				-776.57501	1132.50000	12.25232	-873.69928	858.04156	-83.04109				-678.01721	762.96350	354.58636	-692.87000	85.02453	35.59033	-791.36578	994.92633	360.11807				-684.72534	1330.78308	-64.88956	-976.74249	1268.46521	138.02025	-758.53180	1239.95911	219.42966				-995.69269	1251.36108	-73.91062	-876.30463	1413.60193	-63.79944	
409	4.080	-709.74481	446.84253	78.53262	-889.32391	1502.06067	78.58208							-729.35535	846.83075	50.80899				-771.61816	1132.50964	7.71331	-869.30627	858.40137	-87.85667				-675.14087	762.11609	349.94794	-692.01343	84.26855	34.61959	-787.53503	994.03485	354.57367				-677.94397	1331.83228	-72.85897	-972.13123	1269.16028	132.35852	-753.16376	1239.29895	214.39513				-990.24432	1251.89990	-79.66224	-870.59869	1413.39319	-68.09231	
410	4.090	-705.39447	448.32245	74.16171	-884.72021	1501.68713	74.22511							-725.46350	847.15735	46.78034				-767.07062	1131.35925	0.14392	-864.01093	857.90936	-91.42680				-671.57800	760.51398	346.46619	-691.16101	83.54537	33.77248	-783.08130	993.87354	349.59781				-672.84161	1330.75403	-77.18626	-967.72565	1268.90039	127.19646	-749.18811	1239.11377	209.05096				-985.52606	1251.75403	-84.91545	-865.59302	1412.82385	-72.93849	
411	4.100	-701.42365	449.89725	69.86780	-879.59937	1501.17957	69.40668							-721.96613	847.21649	43.17899				-762.43091	1132.07751	-3.00854	-859.02148	858.57654	-96.65980				-668.23041	759.91125	342.50220	-690.46991	83.50213	32.25912	-777.52142	993.02112	343.46231				-667.72015	1330.13184	-81.57958	-963.86572	1268.70496	122.70026	-745.00928	1239.24036	204.42543				-980.02295	1251.80701	-89.88525	-860.67230	1412.68286	-78.72134	
412	4.110	-697.45160	451.17966	67.34772	-874.86823	1500.19202	64.17120							-717.45276	847.39197	38.66007				-758.43707	1131.27319	-6.04316	-853.79840	858.84326	-101.03107				-665.00012	759.42090	337.92450	-689.70721	83.81023	31.78693	-773.34875	993.25952	338.18799				-663.06232	1329.17896	-85.95169	-959.56525	1268.85217	116.76870	-740.56061	1239.40393	199.18059				-974.81958	1252.13843	-95.75630	-855.32678	1412.83923	-83.25887	
413	4.120	-693.84149	452.11710	63.82827	-869.81311	1500.01282	59.30174							-713.34167	847.55090	35.00246				-753.61035	1131.24536	-12.27273	-848.59070	858.74323	-104.43336				-661.49121	759.52582	334.21216	-689.25708	84.08217	31.14779	-768.16583	992.74866	332.41486				-658.48077	1328.42322	-90.79041	-955.95966	1269.13245	111.45468	-737.12445	1239.09729	193.39607				-969.91595	1251.96997	-100.36866	-850.09711	1411.85742	-87.91629	
414	4.130	-690.01978	452.03027	61.14208	-865.29181	1499.84351	54.17103							-709.67377	847.49731	31.93547				-750.05420	1131.09692	-17.21916	-843.54449	859.27155	-109.44574				-658.42487	759.48615	330.36298	-688.66449	83.68125	29.93428	-761.92975	993.20081	327.43039				-655.63727	1325.22119	-92.05518	-952.18945	1269.29504	106.39478	-733.32068	1239.52258	187.87515				-965.12421	1251.64697	-105.85334	-845.17444	1412.24231	-93.27850	
